<mxfile host="app.diagrams.net" agent="Mozilla/5.0 (X11; Linux x86_64) AppleWebKit/537.36 (KHTML, like Gecko) Chrome/127.0.0.0 Safari/537.36" version="24.7.6">
  <diagram name="Page-1" id="NCQ5cUtqjpUBWLN1n71l">
    <mxGraphModel dx="1231" dy="1820" grid="1" gridSize="10" guides="1" tooltips="1" connect="1" arrows="1" fold="1" page="1" pageScale="1" pageWidth="850" pageHeight="1100" math="0" shadow="0">
      <root>
        <mxCell id="0" />
        <mxCell id="1" parent="0" />
        <mxCell id="wdMo5kVVTBdfOEnUxtck-4" value="" style="rounded=1;whiteSpace=wrap;html=1;" vertex="1" parent="1">
          <mxGeometry x="310" y="90" width="420" height="190" as="geometry" />
        </mxCell>
        <mxCell id="wdMo5kVVTBdfOEnUxtck-5" value="&lt;span style=&quot;font-size: 16px;&quot;&gt;Kubernates Master&lt;/span&gt;" style="rounded=1;whiteSpace=wrap;html=1;" vertex="1" parent="1">
          <mxGeometry x="340" y="110" width="190" height="40" as="geometry" />
        </mxCell>
        <mxCell id="wdMo5kVVTBdfOEnUxtck-7" value="&lt;span style=&quot;font-size: 16px;&quot;&gt;etcd&lt;/span&gt;" style="rounded=1;whiteSpace=wrap;html=1;" vertex="1" parent="1">
          <mxGeometry x="340" y="170" width="110" height="30" as="geometry" />
        </mxCell>
        <mxCell id="wdMo5kVVTBdfOEnUxtck-8" value="&lt;span style=&quot;font-size: 16px;&quot;&gt;Api Server&lt;/span&gt;" style="rounded=1;whiteSpace=wrap;html=1;" vertex="1" parent="1">
          <mxGeometry x="470" y="170" width="100" height="30" as="geometry" />
        </mxCell>
        <mxCell id="wdMo5kVVTBdfOEnUxtck-9" value="&lt;span style=&quot;font-size: 16px;&quot;&gt;Scheduler&lt;/span&gt;" style="rounded=1;whiteSpace=wrap;html=1;" vertex="1" parent="1">
          <mxGeometry x="590" y="170" width="110" height="30" as="geometry" />
        </mxCell>
        <mxCell id="wdMo5kVVTBdfOEnUxtck-10" value="&lt;span style=&quot;font-size: 16px;&quot;&gt;Controller Manager&lt;/span&gt;" style="rounded=1;whiteSpace=wrap;html=1;" vertex="1" parent="1">
          <mxGeometry x="340" y="220" width="360" height="40" as="geometry" />
        </mxCell>
        <mxCell id="wdMo5kVVTBdfOEnUxtck-11" value="" style="rounded=1;whiteSpace=wrap;html=1;" vertex="1" parent="1">
          <mxGeometry x="80" y="520" width="240" height="200" as="geometry" />
        </mxCell>
        <mxCell id="wdMo5kVVTBdfOEnUxtck-12" value="" style="rounded=1;whiteSpace=wrap;html=1;" vertex="1" parent="1">
          <mxGeometry x="400" y="520" width="240" height="200" as="geometry" />
        </mxCell>
        <mxCell id="wdMo5kVVTBdfOEnUxtck-13" value="" style="rounded=1;whiteSpace=wrap;html=1;" vertex="1" parent="1">
          <mxGeometry x="723" y="520" width="240" height="200" as="geometry" />
        </mxCell>
        <mxCell id="wdMo5kVVTBdfOEnUxtck-16" value="" style="endArrow=none;dashed=1;html=1;dashPattern=1 3;strokeWidth=2;rounded=0;entryX=0.5;entryY=1;entryDx=0;entryDy=0;exitX=0.5;exitY=0;exitDx=0;exitDy=0;" edge="1" parent="1" source="wdMo5kVVTBdfOEnUxtck-12" target="wdMo5kVVTBdfOEnUxtck-4">
          <mxGeometry width="50" height="50" relative="1" as="geometry">
            <mxPoint x="520" y="490" as="sourcePoint" />
            <mxPoint x="570" y="440" as="targetPoint" />
          </mxGeometry>
        </mxCell>
        <mxCell id="wdMo5kVVTBdfOEnUxtck-17" value="" style="endArrow=none;dashed=1;html=1;dashPattern=1 3;strokeWidth=2;rounded=0;entryX=0.31;entryY=1;entryDx=0;entryDy=0;entryPerimeter=0;" edge="1" parent="1" target="wdMo5kVVTBdfOEnUxtck-4">
          <mxGeometry width="50" height="50" relative="1" as="geometry">
            <mxPoint x="200" y="520" as="sourcePoint" />
            <mxPoint x="250" y="470" as="targetPoint" />
          </mxGeometry>
        </mxCell>
        <mxCell id="wdMo5kVVTBdfOEnUxtck-18" value="" style="endArrow=none;dashed=1;html=1;dashPattern=1 3;strokeWidth=2;rounded=0;exitX=0.688;exitY=1;exitDx=0;exitDy=0;exitPerimeter=0;entryX=0.5;entryY=0;entryDx=0;entryDy=0;" edge="1" parent="1" source="wdMo5kVVTBdfOEnUxtck-4" target="wdMo5kVVTBdfOEnUxtck-13">
          <mxGeometry width="50" height="50" relative="1" as="geometry">
            <mxPoint x="700" y="460" as="sourcePoint" />
            <mxPoint x="750" y="410" as="targetPoint" />
          </mxGeometry>
        </mxCell>
        <mxCell id="wdMo5kVVTBdfOEnUxtck-19" value="&lt;font style=&quot;font-size: 17px;&quot;&gt;Kubernates Node 1&lt;/font&gt;" style="text;html=1;align=center;verticalAlign=middle;resizable=0;points=[];autosize=1;strokeColor=none;fillColor=none;" vertex="1" parent="1">
          <mxGeometry x="80" y="535" width="170" height="30" as="geometry" />
        </mxCell>
        <mxCell id="wdMo5kVVTBdfOEnUxtck-20" value="&lt;font style=&quot;font-size: 17px;&quot;&gt;Kubernates Node 2&lt;/font&gt;" style="text;html=1;align=center;verticalAlign=middle;resizable=0;points=[];autosize=1;strokeColor=none;fillColor=none;" vertex="1" parent="1">
          <mxGeometry x="410" y="530" width="170" height="30" as="geometry" />
        </mxCell>
        <mxCell id="wdMo5kVVTBdfOEnUxtck-21" value="&lt;font style=&quot;font-size: 17px;&quot;&gt;Kubernates Node 3&lt;/font&gt;" style="text;html=1;align=center;verticalAlign=middle;resizable=0;points=[];autosize=1;strokeColor=none;fillColor=none;" vertex="1" parent="1">
          <mxGeometry x="750" y="535" width="170" height="30" as="geometry" />
        </mxCell>
        <mxCell id="wdMo5kVVTBdfOEnUxtck-22" value="&lt;font style=&quot;font-size: 16px;&quot;&gt;Docker&lt;/font&gt;" style="rounded=1;whiteSpace=wrap;html=1;" vertex="1" parent="1">
          <mxGeometry x="100" y="590" width="100" height="30" as="geometry" />
        </mxCell>
        <mxCell id="wdMo5kVVTBdfOEnUxtck-24" value="&lt;span style=&quot;font-size: 16px;&quot;&gt;Kubelet&lt;/span&gt;" style="rounded=1;whiteSpace=wrap;html=1;" vertex="1" parent="1">
          <mxGeometry x="210" y="590" width="100" height="30" as="geometry" />
        </mxCell>
        <mxCell id="wdMo5kVVTBdfOEnUxtck-25" value="&lt;font style=&quot;font-size: 16px;&quot;&gt;Docker&lt;/font&gt;" style="rounded=1;whiteSpace=wrap;html=1;" vertex="1" parent="1">
          <mxGeometry x="420" y="590" width="100" height="30" as="geometry" />
        </mxCell>
        <mxCell id="wdMo5kVVTBdfOEnUxtck-26" value="&lt;span style=&quot;font-size: 16px;&quot;&gt;Kubelet&lt;/span&gt;" style="rounded=1;whiteSpace=wrap;html=1;" vertex="1" parent="1">
          <mxGeometry x="530" y="590" width="100" height="30" as="geometry" />
        </mxCell>
        <mxCell id="wdMo5kVVTBdfOEnUxtck-27" value="&lt;span style=&quot;font-size: 16px;&quot;&gt;Kubelet&lt;/span&gt;" style="rounded=1;whiteSpace=wrap;html=1;" vertex="1" parent="1">
          <mxGeometry x="850" y="580" width="100" height="30" as="geometry" />
        </mxCell>
        <mxCell id="wdMo5kVVTBdfOEnUxtck-28" value="&lt;font style=&quot;font-size: 16px;&quot;&gt;Docker&lt;/font&gt;" style="rounded=1;whiteSpace=wrap;html=1;" vertex="1" parent="1">
          <mxGeometry x="740" y="580" width="100" height="30" as="geometry" />
        </mxCell>
        <mxCell id="wdMo5kVVTBdfOEnUxtck-29" value="&lt;font style=&quot;font-size: 17px;&quot;&gt;kubernates Proxzy&lt;/font&gt;" style="rounded=1;whiteSpace=wrap;html=1;" vertex="1" parent="1">
          <mxGeometry x="110" y="650" width="180" height="40" as="geometry" />
        </mxCell>
        <mxCell id="wdMo5kVVTBdfOEnUxtck-30" value="&lt;font style=&quot;font-size: 17px;&quot;&gt;kubernates Proxzy&lt;/font&gt;" style="rounded=1;whiteSpace=wrap;html=1;" vertex="1" parent="1">
          <mxGeometry x="430" y="650" width="180" height="40" as="geometry" />
        </mxCell>
        <mxCell id="wdMo5kVVTBdfOEnUxtck-31" value="&lt;font style=&quot;font-size: 17px;&quot;&gt;kubernates Proxzy&lt;/font&gt;" style="rounded=1;whiteSpace=wrap;html=1;" vertex="1" parent="1">
          <mxGeometry x="753" y="650" width="180" height="40" as="geometry" />
        </mxCell>
        <mxCell id="wdMo5kVVTBdfOEnUxtck-32" value="&lt;font style=&quot;font-size: 22px;&quot;&gt;Kubrernates Cluster Architecture&lt;/font&gt;" style="text;html=1;align=center;verticalAlign=middle;resizable=0;points=[];autosize=1;strokeColor=none;fillColor=none;" vertex="1" parent="1">
          <mxGeometry x="350" y="-30" width="340" height="40" as="geometry" />
        </mxCell>
      </root>
    </mxGraphModel>
  </diagram>
</mxfile>
